HIERARCHY
ROOT Hips
{
	OFFSET -0.001795 -0.223333 0.028219
	CHANNELS 6 Xposition Yposition Zposition Zrotation Yrotation Xrotation 
	JOINT LeftUpLeg
	{
		OFFSET 0.069520 -0.091406 -0.006815
		CHANNELS 3 Zrotation Yrotation Xrotation
		JOINT LeftLeg
		{
			OFFSET 0.034277 -0.375199 -0.004496
			CHANNELS 3 Zrotation Yrotation Xrotation
			JOINT LeftFoot
			{
				OFFSET -0.013596 -0.397961 -0.043693
				CHANNELS 3 Zrotation Yrotation Xrotation
				JOINT LeftToe
				{
					OFFSET 0.026358 -0.055791 0.119288
					CHANNELS 3 Zrotation Yrotation Xrotation
					End Site
					{
						OFFSET 0.000000 0.000000 0.000000
					}
				}
			}
		}
	}
	JOINT RightUpLeg
	{
		OFFSET -0.067670 -0.090522 -0.004320
		CHANNELS 3 Zrotation Yrotation Xrotation
		JOINT RightLeg
		{
			OFFSET -0.038290 -0.382569 -0.008850
			CHANNELS 3 Zrotation Yrotation Xrotation
			JOINT RightFoot
			{
				OFFSET 0.015774 -0.398415 -0.042312
				CHANNELS 3 Zrotation Yrotation Xrotation
				JOINT RightToe
				{
					OFFSET -0.025372 -0.048144 0.123348
					CHANNELS 3 Zrotation Yrotation Xrotation
					End Site
					{
						OFFSET 0.000000 0.000000 0.000000
					}
				}
			}
		}
	}
	JOINT Spine
	{
		OFFSET -0.002533 0.108963 -0.026696
		CHANNELS 3 Zrotation Yrotation Xrotation
		JOINT Spine1
		{
			OFFSET 0.005487 0.135180 0.001092
			CHANNELS 3 Zrotation Yrotation Xrotation
			JOINT Spine2
			{
				OFFSET 0.001457 0.052922 0.025425
				CHANNELS 3 Zrotation Yrotation Xrotation
				JOINT Neck
				{
					OFFSET -0.002778 0.213870 -0.042857
					CHANNELS 3 Zrotation Yrotation Xrotation
					JOINT Head
					{
						OFFSET 0.005152 0.064970 0.051349
						CHANNELS 3 Zrotation Yrotation Xrotation
						End Site
						{
							OFFSET 0.000000 0.000000 0.000000
						}
					}
				}
				JOINT LeftShoulder
				{
					OFFSET 0.078845 0.121749 -0.034090
					CHANNELS 3 Zrotation Yrotation Xrotation
					JOINT LeftArm
					{
						OFFSET 0.090977 0.030469 -0.008868
						CHANNELS 3 Zrotation Yrotation Xrotation
						JOINT LeftForeArm
						{
							OFFSET 0.259612 -0.012772 -0.027456
							CHANNELS 3 Zrotation Yrotation Xrotation
							JOINT LeftHand
							{
								OFFSET 0.249234 0.008986 -0.001171
								CHANNELS 3 Zrotation Yrotation Xrotation
								End Site
								{
									OFFSET 0.000000 0.000000 0.000000
								}
							}
						}
					}
				}
				JOINT RightShoulder
				{
					OFFSET -0.081759 0.118833 -0.038615
					CHANNELS 3 Zrotation Yrotation Xrotation
					JOINT RightArm
					{
						OFFSET -0.096012 0.032551 -0.009143
						CHANNELS 3 Zrotation Yrotation Xrotation
						JOINT RightForeArm
						{
							OFFSET -0.253742 -0.013329 -0.021401
							CHANNELS 3 Zrotation Yrotation Xrotation
							JOINT RightHand
							{
								OFFSET -0.255298 0.007772 -0.005559
								CHANNELS 3 Zrotation Yrotation Xrotation
								End Site
								{
									OFFSET 0.000000 0.000000 0.000000
								}
							}
						}
					}
				}
			}
		}
	}
}
MOTION
Frames: 5
Frame Time: 0.050000
-0.484412 0.942724 -0.156844 -20.768252 81.089195 -16.125097 2.873228 -0.852768 -0.915847 -3.168825 -4.999831 -19.213607 -8.643704 3.359026 17.325462 0.000000 0.000000 0.000000 -0.034982 -0.358607 -5.670683 0.679905 -0.820923 0.394917 -11.769090 -17.636195 15.951673 0.000000 0.000000 0.000000 -0.343058 -0.285294 5.525118 -6.214158 -3.586896 10.070541 6.910613 11.410043 -0.973873 8.384291 1.840805 -19.146573 0.000000 0.000000 0.000000 -36.349861 -36.004691 -5.354099 -32.023270 8.593626 1.349149 -75.764585 -61.575860 43.403538 0.000000 0.000000 0.000000 29.989702 13.869146 27.065283 24.668936 23.449270 -2.432020 -68.043662 55.518390 -30.495734 0.000000 0.000000 0.000000 
-0.485924 0.942705 -0.156366 -19.801541 80.412540 -15.290867 3.183941 -0.911946 -0.749102 -3.388993 -5.030307 -19.313714 -8.214177 3.819212 17.373051 0.000000 0.000000 0.000000 0.331140 -0.242646 -5.488143 0.218865 -0.630618 0.014812 -11.547875 -17.273981 15.911932 0.000000 0.000000 0.000000 -0.200630 -0.325922 5.831655 -6.432446 -3.435371 10.232487 7.019505 10.989309 -0.880438 8.523645 1.695657 -19.165726 0.000000 0.000000 0.000000 -36.490280 -35.718676 -4.940266 -32.220757 8.251460 1.272602 -75.245965 -61.795461 43.382931 0.000000 0.000000 0.000000 29.424108 15.754422 27.587195 23.807940 24.751272 -2.046278 -61.728886 52.208482 -25.369318 0.000000 0.000000 0.000000 
-0.487832 0.942635 -0.155993 -18.012856 79.944647 -13.738608 3.081936 -0.894375 -0.536485 -3.373299 -4.990659 -19.384897 -7.979818 4.118467 17.446597 0.000000 0.000000 0.000000 0.513228 -0.187023 -5.188963 -0.339650 -0.430770 -0.417364 -11.374179 -17.025798 15.849238 0.000000 0.000000 0.000000 -0.474091 -0.349727 6.165244 -6.925298 -3.472495 10.910564 7.290514 10.978791 -1.142007 8.791729 1.544332 -19.508809 0.000000 0.000000 0.000000 -36.216880 -35.837206 -4.161936 -32.703107 7.270517 1.354563 -75.522386 -62.310918 43.798242 0.000000 0.000000 0.000000 29.028645 18.277886 28.734719 22.320609 27.007102 -1.622885 -55.824711 46.442747 -19.907187 0.000000 0.000000 0.000000 
-0.489728 0.942544 -0.155490 -16.406401 79.541175 -12.378340 3.086943 -0.908064 -0.182095 -3.504294 -5.102646 -19.704471 -7.742123 4.528215 17.677426 0.000000 0.000000 0.000000 0.609708 -0.157136 -4.837008 -0.755171 -0.280191 -0.908852 -11.205990 -16.791150 15.784368 0.000000 0.000000 0.000000 -0.609951 -0.406523 6.717836 -7.214992 -3.235344 10.821911 7.715232 10.747815 -0.671937 8.869214 1.595499 -19.914718 0.000000 0.000000 0.000000 -35.965165 -35.826525 -3.687932 -33.077228 6.173280 1.472110 -76.887243 -62.350588 44.706487 0.000000 0.000000 0.000000 28.554672 20.342472 29.541578 20.352266 28.771996 -1.371994 -50.577834 42.024046 -16.167203 0.000000 0.000000 0.000000 
-0.491352 0.942200 -0.154774 -15.194472 79.245788 -11.236999 3.029786 -0.891224 -0.142652 -3.520905 -5.107121 -19.788417 -7.572486 4.734320 17.725921 0.000000 0.000000 0.000000 0.726883 -0.127499 -4.609886 -1.136927 -0.152289 -1.455843 -11.091763 -16.655286 15.704091 0.000000 0.000000 0.000000 -0.698265 -0.426234 6.917918 -7.216336 -3.232940 10.956879 7.745720 10.819294 -0.566767 9.384154 1.375164 -20.223717 0.000000 0.000000 0.000000 -35.521118 -35.865712 -3.384501 -33.338316 5.046232 1.673178 -79.219609 -62.429181 46.238830 0.000000 0.000000 0.000000 28.524979 21.858842 30.463971 19.905141 30.055451 -1.170851 -47.614608 40.066382 -14.543069 0.000000 0.000000 0.000000 
